<svg width="27" height="25" viewBox="0 0 27 25" fill="none" xmlns="http://www.w3.org/2000/svg">
<path fill-rule="evenodd" clip-rule="evenodd" d="M0.375 9.58331C0.375 4.75082 4.29251 0.833313 9.125 0.833313H17.875C22.7075 0.833313 26.625 4.75082 26.625 9.58331C26.625 10.3887 25.9721 11.0416 25.1667 11.0416H1.83333C1.02792 11.0416 0.375 10.3887 0.375 9.58331ZM9.125 6.66665C9.125 7.47206 8.47208 8.12498 7.66667 8.12498C6.86125 8.12498 6.20833 7.47206 6.20833 6.66665C6.20833 5.86123 6.86125 5.20831 7.66667 5.20831C8.47208 5.20831 9.125 5.86123 9.125 6.66665ZM13.5 8.12498C14.3054 8.12498 14.9583 7.47206 14.9583 6.66665C14.9583 5.86123 14.3054 5.20831 13.5 5.20831C12.6946 5.20831 12.0417 5.86123 12.0417 6.66665C12.0417 7.47206 12.6946 8.12498 13.5 8.12498ZM20.7917 6.66665C20.7917 7.47206 20.1388 8.12498 19.3333 8.12498C18.5279 8.12498 17.875 7.47206 17.875 6.66665C17.875 5.86123 18.5279 5.20831 19.3333 5.20831C20.1388 5.20831 20.7917 5.86123 20.7917 6.66665Z" fill="#504F4F"/>
<path d="M26.625 21.25C26.625 22.8608 25.3192 24.1666 23.7083 24.1666H3.29167C1.68083 24.1666 0.375 22.8608 0.375 21.25C0.375 20.4446 1.02792 19.7916 1.83333 19.7916H25.1667C25.9721 19.7916 26.625 20.4446 26.625 21.25Z" fill="#504F4F"/>
</svg>
